# xmcd
#
# Track frame offsets:
#	150
#	10295
#	22036
#	31381
#	43811
#	54944
#	68947
#	77623
#	89203
#	100368
#	111224
#	122137
#	130778
#	144543
#	153888
#	167601
#
# Disc length: 2354 seconds
#
# Revision: 0
# Processed by: cddbd v1.4PL0 Copyright (c) Steve Scherf et al.
# Submitted via: dBpowerAMP V4.0
#
DISCID=d7093010
DTITLE=Alquimistas - Alquimistas
DYEAR=1900
DGENRE=Instrumental
TTITLE0=No Trepassing
TTITLE1=Take It Off
TTITLE2=Driving Guitars
TTITLE3=Cry For a Shadow
TTITLE4=Shinding
TTITLE5=The Savage
TTITLE6=Dick Tracy
TTITLE7=Yellow Jackets
TTITLE8=Sleepwalk
TTITLE9=Bulldog
TTITLE10=Run Chicken Run
TTITLE11=Rawhide
TTITLE12=Atlantis
TTITLE13=Secret Agent Man
TTITLE14=Wipe Out
TTITLE15=?
EXTD=
EXTT0=
EXTT1=
EXTT2=
EXTT3=
EXTT4=
EXTT5=
EXTT6=
EXTT7=
EXTT8=
EXTT9=
EXTT10=
EXTT11=
EXTT12=
EXTT13=
EXTT14=
EXTT15=
PLAYORDER=
